<svg width="20" height="20" viewBox="0 0 20 20" fill="none" xmlns="http://www.w3.org/2000/svg">
<path d="M4.6875 0V16.4844H0V17.0703C0 18.6857 1.31426 20 2.92969 20H17.0703C18.6857 20 20 18.6857 20 17.0703V0H4.6875ZM2.92969 18.8281C2.16574 18.8281 1.5141 18.3383 1.27227 17.6562H14.1995C14.2877 18.0889 14.4716 18.4873 14.7279 18.8281H2.92969ZM18.8281 17.0703C18.8281 18.0396 18.0396 18.8281 17.0703 18.8281C16.1011 18.8281 15.3125 18.0396 15.3125 17.0703V16.4844H5.85938V1.17188H18.8281V17.0703Z" fill="#565757"/>
<path d="M8.20312 5.89844H16.4844V7.07031H8.20312V5.89844Z" fill="#565757"/>
<path d="M8.20312 8.24219H16.4844V9.41406H8.20312V8.24219Z" fill="#565757"/>
<path d="M8.20312 10.5859H16.4844V11.7578H8.20312V10.5859Z" fill="#565757"/>
</svg>
